<svg xmlns="http://www.w3.org/2000/svg">
    <defs>
        <symbol id="info-circle" viewBox="0 0 22 22" fill="none" xmlns="http://www.w3.org/2000/svg">
            <path d="M11 15V11M11 7H11.01M21 11C21 16.5228 16.5228 21 11 21C5.47715 21 1 16.5228 1 11C1 5.47715 5.47715 1 11 1C16.5228 1 21 5.47715 21 11Z" stroke="currentColor" stroke-width="2" stroke-linecap="round" stroke-linejoin="round"/>
        </symbol>

        <symbol id="arrow-up" viewBox="0 0 16 16" fill="none" xmlns="http://www.w3.org/2000/svg">
            <path d="M8 15V1M8 1L1 8M8 1L15 8" stroke="currentColor" stroke-width="2" stroke-linecap="round" stroke-linejoin="round"/>
        </symbol>

        <symbol id="plus" viewBox="0 0 16 16" fill="none" xmlns="http://www.w3.org/2000/svg">
            <path d="M8 1V15M1 8H15" stroke="currentColor" stroke-width="2" stroke-linecap="round" stroke-linejoin="round"/>
        </symbol>

        <symbol id="dot" viewBox="0 0 6 6" fill="none" xmlns="http://www.w3.org/2000/svg">
            <circle cx="3" cy="3" r="3" fill="currentColor"/>
        </symbol>

        <symbol id="circle" viewBox="0 0 22 22"  fill="none" xmlns="http://www.w3.org/2000/svg">
            <path d="M11 21C16.5228 21 21 16.5228 21 11C21 5.47715 16.5228 1 11 1C5.47715 1 1 5.47715 1 11C1 16.5228 5.47715 21 11 21Z" stroke="currentColor" stroke-width="2" stroke-linecap="round" stroke-linejoin="round"/>
        </symbol>

        <symbol id="check-circle" viewBox="0 0 24 24" fill="none" xmlns="http://www.w3.org/2000/svg">
            <path d="M7.5 12L10.5 15L16.5 9M22 12C22 17.5228 17.5228 22 12 22C6.47715 22 2 17.5228 2 12C2 6.47715 6.47715 2 12 2C17.5228 2 22 6.47715 22 12Z" stroke="currentColor" stroke-width="2" stroke-linecap="round" stroke-linejoin="round"/>
        </symbol>

        <symbol id="pin" viewBox="0 0 22 22" fill="none" xmlns="http://www.w3.org/2000/svg">
            <path d="M7.3767 14.6163L1.71985 20.2732M10.6944 5.64181L9.1335 7.2027C9.00618 7.33003 8.94252 7.39369 8.86999 7.44427C8.80561 7.48917 8.73616 7.52634 8.66309 7.555C8.58077 7.58729 8.49249 7.60495 8.31592 7.64026L4.65145 8.37315C3.69915 8.56361 3.223 8.65884 3.00024 8.9099C2.80617 9.12861 2.71755 9.4213 2.75771 9.71092C2.8038 10.0434 3.14715 10.3867 3.83387 11.0735L10.9196 18.1592C11.6063 18.8459 11.9497 19.1893 12.2821 19.2354C12.5718 19.2755 12.8645 19.1869 13.0832 18.9928C13.3342 18.7701 13.4294 18.2939 13.6199 17.3416L14.3528 13.6771C14.3881 13.5006 14.4058 13.4123 14.4381 13.33C14.4667 13.2569 14.5039 13.1875 14.5488 13.1231C14.5994 13.0505 14.663 12.9869 14.7904 12.8596L16.3512 11.2987C16.4326 11.2173 16.4734 11.1766 16.5181 11.141C16.5578 11.1095 16.5999 11.081 16.644 11.0558C16.6936 11.0274 16.7465 11.0048 16.8523 10.9594L19.3467 9.8904C20.0744 9.57853 20.4383 9.42259 20.6035 9.17061C20.7481 8.95025 20.7998 8.68175 20.7474 8.42348C20.6875 8.12813 20.4076 7.84822 19.8478 7.28839L14.7047 2.14526C14.1448 1.58543 13.8649 1.30552 13.5696 1.24565C13.3113 1.19329 13.0428 1.245 12.8225 1.38953C12.5705 1.55481 12.4145 1.91866 12.1027 2.64636L11.0337 5.14071C10.9883 5.24653 10.9656 5.29944 10.9373 5.34905C10.9121 5.39313 10.8836 5.43522 10.852 5.47496C10.8165 5.51971 10.7758 5.56041 10.6944 5.64181Z" stroke="currentColor" stroke-width="2" stroke-linecap="round" stroke-linejoin="round"/>
        </symbol>


        <symbol id="au" viewBox="0 0 16 16" fill="none" xmlns="http://www.w3.org/2000/svg">
            <g clip-path="url(#clip0_3918_415319)">
            <path d="M16 8C16 12.4183 12.4183 16 8 16C3.58175 16 0 12.4183 0 8C0 8.00187 8 0.00090625 8 0C12.4183 0 16 3.58175 16 8Z" fill="#0052B4"/>
            <path d="M7.97852 8.00026H7.99996C7.99996 7.993 7.99996 7.98605 7.99996 7.97882C7.99283 7.98599 7.98569 7.99313 7.97852 8.00026Z" fill="#F0F0F0"/>
            <path d="M7.99981 4.17445C7.99981 2.7668 7.99981 1.84439 7.99981 0.000549316H7.99847C3.58081 0.00126807 -0.000183105 3.58267 -0.000183105 8.00052H4.17372V5.65014L6.52409 8.00052H7.97844C7.98559 7.99339 7.99272 7.98627 7.99984 7.97911C7.99984 7.44014 7.99984 6.95924 7.99984 6.52486L5.64944 4.17445H7.99981Z" fill="#F0F0F0"/>
            <path d="M4.04739 1.04382C2.79617 1.75629 1.75599 2.79648 1.04352 4.0477V8.00036H3.13049V3.13082V3.13079H8.00005C8.00005 2.47257 8.00005 1.84551 8.00005 1.04382H4.04739Z" fill="#D80027"/>
            <path d="M8.00025 7.01664L5.15797 4.17439H4.17419C4.17419 4.17436 4.17419 4.17439 4.17419 4.17439L8.00022 8.00043H8.00025C8.00025 8.00043 8.00025 7.32214 8.00025 7.01664Z" fill="#D80027"/>
            <path d="M4.82504 9.39093L5.26411 10.309L6.25557 10.0798L5.81157 10.9955L6.60889 11.6278L5.61617 11.8516L5.61895 12.8692L4.82504 12.2325L4.03117 12.8692L4.03395 11.8516L3.0412 11.6278L3.83854 10.9955L3.39448 10.0798L4.38601 10.309L4.82504 9.39093Z" fill="#F0F0F0"/>
            <path d="M11.978 11.1302L12.1976 11.5892L12.6933 11.4746L12.4713 11.9325L12.87 12.2486L12.3736 12.3605L12.375 12.8693L11.978 12.551L11.5811 12.8693L11.5825 12.3605L11.0861 12.2486L11.4848 11.9325L11.2628 11.4746L11.7585 11.5892L11.978 11.1302Z" fill="#F0F0F0"/>
            <path d="M9.93558 6.26093L10.1551 6.71999L10.6508 6.60536L10.4288 7.06321L10.8275 7.37936L10.3311 7.49124L10.3325 8.00005L9.93558 7.68171L9.53864 8.00005L9.53998 7.49124L9.04364 7.37936L9.4423 7.06321L9.2203 6.60536L9.71604 6.71999L9.93558 6.26093Z" fill="#F0F0F0"/>
            <path d="M11.978 3.47839L12.1976 3.93746L12.6933 3.82286L12.4713 4.28071L12.8699 4.59683L12.3736 4.70874L12.375 5.21755L11.978 4.89921L11.5811 5.21755L11.5825 4.70874L11.0861 4.59683L11.4847 4.28071L11.2628 3.82286L11.7585 3.93746L11.978 3.47839Z" fill="#F0F0F0"/>
            <path d="M13.7614 5.56512L13.9809 6.02419L14.4767 5.90956L14.2547 6.36741L14.6533 6.68356L14.157 6.79547L14.1583 7.30425L13.7614 6.98594L13.3645 7.30425L13.3659 6.79547L12.8695 6.68356L13.2682 6.36741L13.0462 5.90956L13.5419 6.02419L13.7614 5.56512Z" fill="#F0F0F0"/>
            <path d="M12.4862 8.00018L12.6588 8.53162H13.2176L12.7655 8.86009L12.9383 9.3915L12.4862 9.06306L12.0341 9.3915L12.2068 8.86009L11.7547 8.53162H12.3135L12.4862 8.00018Z" fill="#F0F0F0"/>
            </g>
            <defs>
            <clipPath id="clip0_3918_415319">
            <rect width="16" height="16" fill="white"/>
            </clipPath>
            </defs>
        </symbol>
    </defs>
</svg>