<svg> 
  <defs>
    <symbol id="check-circle" viewBox="0 0 24 24" fill="none" xmlns="http://www.w3.org/2000/svg">
      <path d="M7.5 12L10.5 15L16.5 9M22 12C22 17.5228 17.5228 22 12 22C6.47715 22 2 17.5228 2 12C2 6.47715 6.47715 2 12 2C17.5228 2 22 6.47715 22 12Z" stroke="currentColor" stroke-width="2" stroke-linecap="round" stroke-linejoin="round"/>
    </symbol>
  
    <symbol id="speedometer" viewBox="0 0 24 24" fill="none" xmlns="http://www.w3.org/2000/svg">
      <path d="M5 12C5 8.13401 8.13401 5 12 5M16.4999 7.5L11.9999 12M22 12C22 17.5228 17.5228 22 12 22C6.47715 22 2 17.5228 2 12C2 6.47715 6.47715 2 12 2C17.5228 2 22 6.47715 22 12ZM13 12C13 12.5523 12.5523 13 12 13C11.4477 13 11 12.5523 11 12C11 11.4477 11.4477 11 12 11C12.5523 11 13 11.4477 13 12Z" stroke="currentColor" stroke-width="2" stroke-linecap="round" stroke-linejoin="round"/>
    </symbol>

    <symbol id="beaker" viewBox="0 0 24 24" fill="none" xmlns="http://www.w3.org/2000/svg">
      <path d="M9 6V10.5012C9 11.0521 9 11.3276 8.93132 11.5829C8.87047 11.809 8.77037 12.0228 8.63557 12.2143C8.48344 12.4305 8.27182 12.6068 7.84859 12.9595L4.15141 16.0405C3.72818 16.3932 3.51656 16.5695 3.36443 16.7857C3.22963 16.9772 3.12953 17.191 3.06868 17.4171C3 17.6724 3 17.9479 3 18.4988V18.8C3 19.9201 3 20.4802 3.21799 20.908C3.40973 21.2843 3.71569 21.5903 4.09202 21.782C4.51984 22 5.0799 22 6.2 22H17.8C18.9201 22 19.4802 22 19.908 21.782C20.2843 21.5903 20.5903 21.2843 20.782 20.908C21 20.4802 21 19.9201 21 18.8V18.4988C21 17.9479 21 17.6724 20.9313 17.4171C20.8705 17.191 20.7704 16.9772 20.6356 16.7857C20.4834 16.5695 20.2718 16.3932 19.8486 16.0405L16.1514 12.9595C15.7282 12.6068 15.5166 12.4305 15.3644 12.2143C15.2296 12.0228 15.1295 11.809 15.0687 11.5829C15 11.3276 15 11.0521 15 10.5012V6M8.3 6H15.7C15.98 6 16.12 6 16.227 5.9455C16.3211 5.89757 16.3976 5.82108 16.4455 5.727C16.5 5.62004 16.5 5.48003 16.5 5.2V2.8C16.5 2.51997 16.5 2.37996 16.4455 2.273C16.3976 2.17892 16.3211 2.10243 16.227 2.0545C16.12 2 15.98 2 15.7 2H8.3C8.01997 2 7.87996 2 7.773 2.0545C7.67892 2.10243 7.60243 2.17892 7.5545 2.273C7.5 2.37996 7.5 2.51997 7.5 2.8V5.2C7.5 5.48003 7.5 5.62004 7.5545 5.727C7.60243 5.82108 7.67892 5.89757 7.773 5.9455C7.87996 6 8.01997 6 8.3 6ZM5.5 17H18.5C18.9647 17 19.197 17 19.3902 17.0384C20.1836 17.1962 20.8038 17.8164 20.9616 18.6098C21 18.803 21 19.0353 21 19.5C21 19.9647 21 20.197 20.9616 20.3902C20.8038 21.1836 20.1836 21.8038 19.3902 21.9616C19.197 22 18.9647 22 18.5 22H5.5C5.03534 22 4.80302 22 4.60982 21.9616C3.81644 21.8038 3.19624 21.1836 3.03843 20.3902C3 20.197 3 19.9647 3 19.5C3 19.0353 3 18.803 3.03843 18.6098C3.19624 17.8164 3.81644 17.1962 4.60982 17.0384C4.80302 17 5.03534 17 5.5 17Z" stroke="currentColor" stroke-width="2" stroke-linecap="round" stroke-linejoin="round"/>
    </symbol>

    <symbol id="droplets" viewBox="0 0 24 24" fill="none" xmlns="http://www.w3.org/2000/svg">
      <path d="M12.56 6.08C13.2478 4.98112 13.7353 3.76904 14 2.5C14.5 5 16 7.4 18 9C20 10.6 21 12.5 21 14.5C21.0057 15.8823 20.6009 17.2352 19.8368 18.3871C19.0727 19.539 17.9838 20.4382 16.7081 20.9705C15.4324 21.5028 14.0274 21.6444 12.6712 21.3773C11.3149 21.1101 10.0685 20.4463 9.09 19.47M7 15.78C9.2 15.78 11 13.95 11 11.73C11 10.57 10.43 9.47 9.29 8.54C8.15 7.61 7.29 6.23 7 4.78C6.71 6.23 5.86 7.62 4.71 8.54C3.56 9.46 3 10.58 3 11.73C3 13.95 4.8 15.78 7 15.78Z" stroke="currentColor" stroke-width="2" stroke-linecap="round" stroke-linejoin="round"/>
    </symbol>

    <symbol id="globe" viewBox="0 0 24 24" fill="none" xmlns="http://www.w3.org/2000/svg">
      <path d="M2 12H22M2 12C2 17.5228 6.47715 22 12 22M2 12C2 6.47715 6.47715 2 12 2M22 12C22 17.5228 17.5228 22 12 22M22 12C22 6.47715 17.5228 2 12 2M12 2C14.5013 4.73835 15.9228 8.29203 16 12C15.9228 15.708 14.5013 19.2616 12 22M12 2C9.49872 4.73835 8.07725 8.29203 8 12C8.07725 15.708 9.49872 19.2616 12 22" stroke="currentColor" stroke-width="2" stroke-linecap="round" stroke-linejoin="round"/>
    </symbol>

    <symbol id="grid-dots-blank" viewBox="0 0 24 24" fill="none" xmlns="http://www.w3.org/2000/svg">
      <path d="M3 3H3.01M3 12H3.01M3 21H3.01M3 16.5H3.01M3 7.5H3.01M7.5 3H7.51M7.5 12H7.51M7.5 21H7.51M16.5 3H16.51M16.5 12H16.51M16.5 21H16.51M12 3H12.01M12 12H12.01M12 21H12.01M12 16.5H12.01M12 7.5H12.01M21 3H21.01M21 12H21.01M21 21H21.01M21 16.5H21.01M21 7.5H21.01" stroke="currentColor" stroke-width="2" stroke-linecap="round" stroke-linejoin="round"/>
    </symbol>

    <symbol id="grid-dots-outer" viewBox="0 0 24 24" fill="none" xmlns="http://www.w3.org/2000/svg">
      <path d="M7.5 12H7.51M16.5 12H16.51M12 12H12.01M12 16.5H12.01M12 7.5H12.01M3 7.8L3 16.2C3 17.8802 3 18.7202 3.32698 19.362C3.6146 19.9265 4.07354 20.3854 4.63803 20.673C5.27976 21 6.11984 21 7.8 21H16.2C17.8802 21 18.7202 21 19.362 20.673C19.9265 20.3854 20.3854 19.9265 20.673 19.362C21 18.7202 21 17.8802 21 16.2V7.8C21 6.11984 21 5.27977 20.673 4.63803C20.3854 4.07354 19.9265 3.6146 19.362 3.32698C18.7202 3 17.8802 3 16.2 3L7.8 3C6.11984 3 5.27976 3 4.63803 3.32698C4.07354 3.6146 3.6146 4.07354 3.32698 4.63803C3 5.27976 3 6.11984 3 7.8Z" stroke="currentColor" stroke-width="2" stroke-linecap="round" stroke-linejoin="round"/>
    </symbol>

    <symbol id="scale" viewBox="0 0 24 24" fill="none" xmlns="http://www.w3.org/2000/svg">
      <path d="M16 21H16.2C17.8802 21 18.7202 21 19.362 20.673C19.9265 20.3854 20.3854 19.9265 20.673 19.362C21 18.7202 21 17.8802 21 16.2V7.8C21 6.11984 21 5.27976 20.673 4.63803C20.3854 4.07354 19.9265 3.6146 19.362 3.32698C18.7202 3 17.8802 3 16.2 3H7.8C6.11984 3 5.27976 3 4.63803 3.32698C4.07354 3.6146 3.6146 4.07354 3.32698 4.63803C3 5.27976 3 6.11984 3 7.8V8M11.5 12.5L17 7M17 7H12M17 7V12M6.2 21H8.8C9.9201 21 10.4802 21 10.908 20.782C11.2843 20.5903 11.5903 20.2843 11.782 19.908C12 19.4802 12 18.9201 12 17.8V15.2C12 14.0799 12 13.5198 11.782 13.092C11.5903 12.7157 11.2843 12.4097 10.908 12.218C10.4802 12 9.92011 12 8.8 12H6.2C5.0799 12 4.51984 12 4.09202 12.218C3.71569 12.4097 3.40973 12.7157 3.21799 13.092C3 13.5198 3 14.0799 3 15.2V17.8C3 18.9201 3 19.4802 3.21799 19.908C3.40973 20.2843 3.71569 20.5903 4.09202 20.782C4.51984 21 5.07989 21 6.2 21Z" stroke="currentColor" stroke-width="2" stroke-linecap="round" stroke-linejoin="round"/>
    </symbol>

    <symbol id="switch-horizontal" viewBox="0 0 24 24" fill="none" xmlns="http://www.w3.org/2000/svg">
      <path d="M4 17H20M20 17L16 13M20 17L16 21M20 7H4M4 7L8 3M4 7L8 11" stroke="currentColor" stroke-width="2" stroke-linecap="round" stroke-linejoin="round"/>
    </symbol>

    <symbol id="terminal-browser" viewBox="0 0 24 24" fill="none" xmlns="http://www.w3.org/2000/svg">
      <path d="M22 9H2M6 17.5L8.5 15L6 12.5M11 17.5L15 17.5M2 7.8L2 16.2C2 17.8802 2 18.7202 2.32698 19.362C2.6146 19.9265 3.07354 20.3854 3.63803 20.673C4.27976 21 5.11984 21 6.8 21H17.2C18.8802 21 19.7202 21 20.362 20.673C20.9265 20.3854 21.3854 19.9265 21.673 19.362C22 18.7202 22 17.8802 22 16.2V7.8C22 6.11984 22 5.27977 21.673 4.63803C21.3854 4.07354 20.9265 3.6146 20.362 3.32698C19.7202 3 18.8802 3 17.2 3L6.8 3C5.11984 3 4.27976 3 3.63803 3.32698C3.07354 3.6146 2.6146 4.07354 2.32698 4.63803C2 5.27976 2 6.11984 2 7.8Z" stroke="currentColor" stroke-width="2" stroke-linecap="round" stroke-linejoin="round"/>
    </symbol>
  </defs>
</svg>